HIERARCHY
ROOT joint_Root
{
	OFFSET 0.0 0.0 0.0
	CHANNELS 6 Xposition Yposition Zposition Zrotation Xrotation Yrotation 
	JOINT Hips
	{
		OFFSET -17.1583 93.1646 452.98
		CHANNELS 6 Xposition Yposition Zposition Zrotation Xrotation Yrotation 
		JOINT Spine
		{
			OFFSET 15.7357 0.0 0.0
			CHANNELS 6 Xposition Yposition Zposition Zrotation Xrotation Yrotation 
			JOINT Chest
			{
				OFFSET 8.98455 -0.406207 0.0
				CHANNELS 6 Xposition Yposition Zposition Zrotation Xrotation Yrotation 
				JOINT Neck
				{
					OFFSET 16.3773 0.0 0.0
					CHANNELS 6 Xposition Yposition Zposition Zrotation Xrotation Yrotation 
					JOINT Head
					{
						OFFSET 6.45672 0.0 0.0
						CHANNELS 6 Xposition Yposition Zposition Zrotation Xrotation Yrotation 
						End Site
						{
							OFFSET 0.0 0.0 0.0
						}
					}
				}
				JOINT Shoulder_L
				{
					OFFSET 12.9942 -0.242716 4.98039
					CHANNELS 6 Xposition Yposition Zposition Zrotation Xrotation Yrotation 
					JOINT UpperArm_L
					{
						OFFSET 5.34809 0.0 0.0
						CHANNELS 6 Xposition Yposition Zposition Zrotation Xrotation Yrotation 
						JOINT LowerArm_L
						{
							OFFSET 24.3286 1.87007e-05 0.0
							CHANNELS 6 Xposition Yposition Zposition Zrotation Xrotation Yrotation 
							JOINT Hand_L
							{
								OFFSET 22.2916 0.0 0.0
								CHANNELS 6 Xposition Yposition Zposition Zrotation Xrotation Yrotation 
								End Site
								{
									OFFSET 0.0 0.0 0.0
								}
							}
						}
					}
				}
				JOINT Shoulder_R
				{
					OFFSET 12.9945 -0.242716 -4.98039
					CHANNELS 6 Xposition Yposition Zposition Zrotation Xrotation Yrotation 
					JOINT UpperArm_R
					{
						OFFSET -5.34813 0.0 0.0
						CHANNELS 6 Xposition Yposition Zposition Zrotation Xrotation Yrotation 
						JOINT LowerArm_R
						{
							OFFSET -24.3289 0.000322201 0.0
							CHANNELS 6 Xposition Yposition Zposition Zrotation Xrotation Yrotation 
							JOINT Hand_R
							{
								OFFSET -22.2915 -0.000108084 0.0
								CHANNELS 6 Xposition Yposition Zposition Zrotation Xrotation Yrotation 
								End Site
								{
									OFFSET 0.0 0.0 0.0
								}
							}
						}
					}
				}
			}
		}
		JOINT UpperLeg_L
		{
			OFFSET -2.19248 -6.46944 0.0
			CHANNELS 6 Xposition Yposition Zposition Zrotation Xrotation Yrotation 
			JOINT LowerLeg_L
			{
				OFFSET 39.0811 0.0 -1.23785e-05
				CHANNELS 6 Xposition Yposition Zposition Zrotation Xrotation Yrotation 
				JOINT Foot_L
				{
					OFFSET 40.9854 0.0 -1.26872e-05
					CHANNELS 6 Xposition Yposition Zposition Zrotation Xrotation Yrotation 
					JOINT Toes_L
					{
						OFFSET 11.7543 0.0 0.0
						CHANNELS 6 Xposition Yposition Zposition Zrotation Xrotation Yrotation 
						End Site
						{
							OFFSET 0.0 0.0 0.0
						}
					}
				}
			}
		}
		JOINT UpperLeg_R
		{
			OFFSET -2.19251 6.46944 0.0
			CHANNELS 6 Xposition Yposition Zposition Zrotation Xrotation Yrotation 
			JOINT LowerLeg_R
			{
				OFFSET -39.0811 -0.00228153 -0.0401928
				CHANNELS 6 Xposition Yposition Zposition Zrotation Xrotation Yrotation 
				JOINT Foot_R
				{
					OFFSET -40.9854 0.0 0.0
					CHANNELS 6 Xposition Yposition Zposition Zrotation Xrotation Yrotation 
					JOINT Toes_R
					{
						OFFSET -11.7543 0.0 0.0
						CHANNELS 6 Xposition Yposition Zposition Zrotation Xrotation Yrotation 
						End Site
						{
							OFFSET 0.0 0.0 0.0
						}
					}
				}
			}
		}
	}
}
MOTION
Frames:	6
Frame Time:	0.0333333
0.000000 0.000000 0.000000 0.000000 0.000000 -0.000000 -4.575880 91.952300 -0.427624 84.379900 0.831670 3.171420 15.735700 0.000005 -0.000001 63.178600 86.531900 -61.083600 8.984550 -0.406207 -0.000000 -1.512920 -3.298550 4.146210 16.377300 -0.000001 -0.000001 8.467850 2.213730 3.507290 6.456720 -0.000001 -0.000000 2.176410 3.913920 9.567250 12.994200 -0.242716 4.980390 -92.356200 6.962970 -71.252100 5.348090 -0.000007 -0.000001 -73.036000 30.295500 0.588956 24.328600 0.000019 0.000005 13.324900 29.428500 -25.736200 22.291600 -0.000001 0.000005 -4.241140 5.051660 6.200540 12.994500 -0.242716 -4.980390 87.821200 6.336620 -70.980800 -5.348130 -0.000001 -0.000004 -66.955500 -6.386300 -6.800390 -24.328900 0.000322 -0.000009 17.350900 -16.045900 -131.497000 -22.291500 -0.000108 -0.000004 64.284700 5.510650 -6.991990 -2.192480 -6.469440 -0.000000 -170.884000 3.546300 -4.351880 39.081100 -0.000007 -0.000012 0.372769 -0.723281 27.266800 40.985400 -0.000006 -0.000013 0.228844 10.065100 -76.297900 11.754300 -0.000000 0.000003 0.000469 0.159309 -10.115700 -2.192510 6.469440 -0.000001 -169.924000 10.020100 -176.679000 -39.081100 -0.002282 -0.040193 0.103221 -0.402204 13.947600 -40.985400 0.000008 0.000006 5.678560 1.414260 -70.669600 -11.754300 -0.000006 -0.000006 -0.009121 0.264616 -5.824480
0.000000 0.000000 0.000000 0.000000 0.000000 -0.000000 -4.599140 91.959500 -0.430693 84.395400 0.786403 3.201490 15.735700 0.000005 -0.000001 63.102400 86.517500 -61.007800 8.984550 -0.406207 -0.000000 -1.491070 -3.319350 4.145630 16.377300 -0.000001 -0.000001 8.462320 2.278920 3.506740 6.456720 -0.000001 -0.000000 2.213980 3.998260 9.591120 12.994200 -0.242716 4.980390 -92.349000 6.950990 -71.275500 5.348090 -0.000007 -0.000001 -73.065800 30.257500 0.591594 24.328600 0.000019 0.000005 13.353100 29.567100 -25.689600 22.291600 -0.000001 0.000005 -4.414440 5.054560 6.136500 12.994500 -0.242716 -4.980390 87.801700 6.409230 -71.022900 -5.348130 -0.000001 -0.000004 -66.499900 -5.315290 -6.690850 -24.328900 0.000322 -0.000009 23.259900 -20.903800 -129.695000 -22.291500 -0.000108 -0.000004 64.021800 5.606060 -11.773900 -2.192480 -6.469440 -0.000000 -170.879000 3.478590 -4.274920 39.081100 -0.000007 -0.000012 0.371191 -0.722114 27.205600 40.985400 -0.000006 -0.000013 0.209713 10.078400 -76.318100 11.754300 -0.000000 0.000003 0.000436 0.159938 -10.090100 -2.192510 6.469440 -0.000001 -169.903000 9.833950 -176.626000 -39.081100 -0.002282 -0.040193 0.102347 -0.400141 13.898700 -40.985400 0.000008 0.000006 5.645630 1.270530 -70.650000 -11.754300 -0.000006 -0.000006 -0.009204 0.265255 -5.798390
0.000000 0.000000 0.000000 0.000000 0.000000 -0.000000 -4.626350 91.949200 -0.431838 84.393700 0.755825 3.202240 15.735700 0.000005 -0.000001 63.178500 86.516400 -61.093700 8.984550 -0.406207 -0.000000 -1.485290 -3.311240 4.126320 16.377300 -0.000001 -0.000001 8.462300 2.258950 3.595170 6.456720 -0.000001 -0.000000 2.221040 3.985580 9.639650 12.994200 -0.242716 4.980390 -92.343300 6.929480 -71.264400 5.348090 -0.000007 -0.000001 -73.038500 30.395800 0.491313 24.328600 0.000019 0.000005 13.296200 29.549000 -25.603100 22.291600 -0.000001 0.000005 -4.459140 5.054180 6.144790 12.994500 -0.242716 -4.980390 87.789000 6.461340 -71.063600 -5.348130 -0.000001 -0.000004 -66.244800 -5.051660 -6.689170 -24.328900 0.000322 -0.000009 27.387300 -24.094500 -128.238000 -22.291500 -0.000108 -0.000004 63.910200 5.662630 -16.421100 -2.192480 -6.469440 -0.000000 -170.855000 3.476260 -4.292850 39.081100 -0.000007 -0.000012 0.373511 -0.725315 27.247800 40.985400 -0.000006 -0.000013 0.197524 10.103300 -76.307900 11.754300 -0.000000 0.000003 0.000491 0.158913 -10.131800 -2.192510 6.469440 -0.000001 -169.918000 10.039800 -176.654000 -39.081100 -0.002282 -0.040193 0.103185 -0.401338 13.971600 -40.985400 0.000008 0.000006 5.690530 1.481330 -70.682500 -11.754300 -0.000006 -0.000006 -0.009060 0.264138 -5.844010
0.000000 0.000000 0.000000 0.000000 0.000000 -0.000000 -4.651240 91.946100 -0.433771 84.393900 0.795314 3.280490 15.735700 0.000005 -0.000001 63.596100 86.496600 -61.539700 8.984550 -0.406207 -0.000000 -1.428530 -3.280130 4.071590 16.377300 -0.000001 -0.000001 8.416270 2.200040 3.709960 6.456720 -0.000001 -0.000000 2.212860 3.905460 9.777530 12.994200 -0.242716 4.980390 -92.325400 6.890000 -71.298600 5.348090 -0.000007 -0.000001 -73.017900 30.373300 0.381757 24.328600 0.000019 0.000005 13.311100 29.561100 -25.620700 22.291600 -0.000001 0.000005 -4.335680 5.052230 6.188010 12.994500 -0.242716 -4.980390 87.780700 6.503940 -71.112600 -5.348130 -0.000001 -0.000004 -66.174200 -5.269560 -6.716860 -24.328900 0.000322 -0.000009 28.890100 -25.209600 -127.664000 -22.291500 -0.000108 -0.000004 63.769700 5.675920 -18.458800 -2.192480 -6.469440 -0.000000 -170.852000 3.508350 -4.230890 39.081100 -0.000007 -0.000012 0.373550 -0.724609 27.272900 40.985400 -0.000006 -0.000013 0.173374 10.062100 -76.377600 11.754300 -0.000000 0.000003 0.000314 0.162158 -10.000000 -2.192510 6.469440 -0.000001 -169.904000 10.005000 -176.578000 -39.081100 -0.002282 -0.040193 0.103295 -0.401779 13.971700 -40.985400 0.000008 0.000006 5.678890 1.408990 -70.672600 -11.754300 -0.000006 -0.000006 -0.008825 0.262307 -5.918850
0.000000 0.000000 0.000000 0.000000 0.000000 -0.000000 -4.670040 91.936400 -0.458186 84.393900 0.838016 3.235580 15.735700 0.000005 -0.000001 63.661000 86.509500 -61.631600 8.984550 -0.406207 -0.000000 -1.449310 -3.259790 4.017160 16.377300 -0.000001 -0.000001 8.388430 2.133170 3.791620 6.456720 -0.000001 -0.000000 2.183660 3.802790 9.935900 12.994200 -0.242716 4.980390 -92.333100 6.904980 -71.279300 5.348090 -0.000007 -0.000001 -72.949000 30.264700 0.265997 24.328600 0.000019 0.000005 13.404000 29.663800 -25.711500 22.291600 -0.000001 0.000005 -4.273970 5.054800 6.131290 12.994500 -0.242716 -4.980390 87.797400 6.464400 -71.139000 -5.348130 -0.000001 -0.000004 -66.458900 -5.725940 -6.902460 -24.328900 0.000322 -0.000009 27.108400 -23.658200 -128.091000 -22.291500 -0.000108 -0.000004 63.615200 5.672240 -17.739600 -2.192480 -6.469440 -0.000000 -170.835000 3.569700 -4.346670 39.081100 -0.000007 -0.000012 0.374015 -0.723424 27.340200 40.985400 -0.000006 -0.000013 0.163071 10.076100 -76.343900 11.754300 -0.000000 0.000003 0.000378 0.161007 -10.046800 -2.192510 6.469440 -0.000001 -169.877000 10.119900 -176.664000 -39.081100 -0.002282 -0.040193 0.106671 -0.414263 14.006800 -40.985400 0.000008 0.000006 5.858870 1.433970 -70.722900 -11.754300 -0.000006 -0.000006 -0.008878 0.262722 -5.901910
0.000000 0.000000 0.000000 0.000000 0.000000 -0.000000 -4.685290 91.939200 -0.458860 84.364700 0.895206 3.297070 15.735700 0.000005 -0.000001 64.019200 86.496000 -62.011800 8.984550 -0.406207 -0.000000 -1.407070 -3.229900 3.974720 16.377300 -0.000001 -0.000001 8.373320 2.043000 3.878710 6.456720 -0.000001 -0.000000 2.160510 3.671970 10.042500 12.994200 -0.242716 4.980390 -92.341800 6.926330 -71.267700 5.348090 -0.000007 -0.000001 -72.862400 30.313200 0.181482 24.328600 0.000019 0.000005 13.402600 29.500400 -25.821800 22.291600 -0.000001 0.000005 -4.122680 5.051280 6.208990 12.994500 -0.242716 -4.980390 87.815300 6.414280 -71.146000 -5.348130 -0.000001 -0.000004 -66.942900 -6.471360 -7.088680 -24.328900 0.000322 -0.000009 23.142900 -20.251800 -129.001000 -22.291500 -0.000108 -0.000004 63.340500 5.648830 -14.919500 -2.192480 -6.469440 -0.000000 -170.789000 3.576700 -4.297360 39.081100 -0.000007 -0.000012 0.374488 -0.724331 27.340400 40.985400 -0.000006 -0.000013 0.156086 10.121100 -76.363200 11.754300 -0.000000 0.000003 0.000306 0.162302 -9.994190 -2.192510 6.469440 -0.000001 -169.859000 10.129900 -176.609000 -39.081100 -0.002282 -0.040193 0.103963 -0.403220 14.013100 -40.985400 0.000008 0.000006 5.685590 1.427780 -70.720100 -11.754300 -0.000006 -0.000006 -0.009328 0.266210 -5.759310
